HIERARCHY
ROOT MidHip
{
    OFFSET 0.0 0.0 0.0
    CHANNELS 6 Xposition Yposition Zposition Zrotation Xrotation Yrotation
    JOINT Spine
    {
        OFFSET 0.0 0.0 14.842398303884591
        CHANNELS 3 Zrotation Xrotation Yrotation
        JOINT MidShoulder
        {
            OFFSET 0.0 0.0 14.842398303884591
            CHANNELS 3 Zrotation Xrotation Yrotation
            JOINT Nose
            {
                OFFSET 0.0 0.0 10.827426190890733
                CHANNELS 3 Zrotation Xrotation Yrotation
                End Site
                {
                    OFFSET 0.0 0.0 4.330970476356295
                }
            }
            JOINT RightShoulder
            {
                OFFSET -9.496854833608069 0.0 0.0
                CHANNELS 3 Zrotation Xrotation Yrotation
                JOINT RightElbow
                {
                    OFFSET -12.339048960619944 0.0 0.0
                    CHANNELS 3 Zrotation Xrotation Yrotation
                    JOINT RightWrist
                    {
                        OFFSET -10.574510946310104 0.0 0.0
                        CHANNELS 3 Zrotation Xrotation Yrotation
                        End Site
                        {
                            OFFSET -2.9909233591469 2.9909233591469 0.0
                        }
                        End Site
                        {
                            OFFSET -4.229804378524042 0.0 0.0
                        }
                        End Site
                        {
                            OFFSET -2.9909233591469 -2.9909233591469 0.0
                        }
                    }
                }
            }
            JOINT LeftShoulder
            {
                OFFSET 9.496854833608069 0.0 0.0
                CHANNELS 3 Zrotation Xrotation Yrotation
                JOINT LeftElbow
                {
                    OFFSET 12.339048960619944 0.0 0.0
                    CHANNELS 3 Zrotation Xrotation Yrotation
                    JOINT LeftWrist
                    {
                        OFFSET 10.574510946310104 0.0 0.0
                        CHANNELS 3 Zrotation Xrotation Yrotation
                        End Site
                        {
                            OFFSET 2.9909233591469 2.9909233591469 0.0
                        }
                        End Site
                        {
                            OFFSET 4.229804378524042 0.0 0.0
                        }
                        End Site
                        {
                            OFFSET 2.9909233591469 -2.9909233591469 0.0
                        }
                    }
                }
            }
        }
    }
    JOINT RightHip
    {
        OFFSET -5.855554788543574 0.0 0.0
        CHANNELS 3 Zrotation Xrotation Yrotation
        JOINT RightKnee
        {
            OFFSET 0.0 0.0 -19.34177856046098
            CHANNELS 3 Zrotation Xrotation Yrotation
            JOINT RightAnkle
            {
                OFFSET 0.0 0.0 -20.807823028541193
                CHANNELS 3 Zrotation Xrotation Yrotation
                End Site
                {
                    OFFSET 0.0 5.8853411060844305 -5.8853411060844305
                }
                End Site
                {
                    OFFSET 0.0 -5.8853411060844305 -5.8853411060844305
                }
            }
        }
    }
    JOINT LeftHip
    {
        OFFSET 5.855554788543574 0.0 0.0
        CHANNELS 3 Zrotation Xrotation Yrotation
        JOINT LeftKnee
        {
            OFFSET 0.0 0.0 -19.34177856046098
            CHANNELS 3 Zrotation Xrotation Yrotation
            JOINT LeftAnkle
            {
                OFFSET 0.0 0.0 -20.807823028541193
                CHANNELS 3 Zrotation Xrotation Yrotation
                End Site
                {
                    OFFSET 0.0 5.8853411060844305 -5.8853411060844305
                }
                End Site
                {
                    OFFSET 0.0 -5.8853411060844305 -5.8853411060844305
                }
            }
        }
    }
}
MOTION
Frames: 9
Frame Time: 0.03333333333333333
4.757112574933527 42.867149983184106 -40.94590584565729 56.85123452517344 -43.72791462707533 59.519317128258194 1.1894739374209107 -10.143562808530705 2.8429746192448073 9.365293868115309 1.8446190914852016e-15 3.0401135685287616e-15 -3.1805546814635168e-15 0.0 0.0 -84.07754801260796 -17.81445191497058 -104.9870463352129 78.41620993902319 -8.95004266783552e-15 -9.078330783572479e-16 30.1687168693376 -24.194250320526475 13.399704837127665 -121.2521674275764 -64.80764966523721 94.2049320128666 -31.60814101672063 8.662196336450025e-16 -3.0603254121199937e-15 -80.65437500082874 77.33418177741555 -99.57445390380167 1.813282276332083 -15.254425344824355 23.57915798905982 2.9019795265374153 9.567705301351412 -6.350680733172167 1.5902773407317584e-15 0.0 0.0 5.234890409958314 -38.17988466991815 3.9788243540479287 -1.4125712336526635 17.567565766181854 5.360323970460521 -2.2069531490250793e-32 -7.951386703658794e-16 -3.1805546814635176e-15
5.140031141135862 42.953139378630596 -40.943679427685936 57.26151144311365 -43.9674880792473 59.13354954712552 1.4832237971715039 -10.537832847295855 3.516280050862736 9.760886111551933 4.753534863891286e-15 -4.0588727717671733e-16 -3.1805546814635176e-15 6.361109362927035e-15 1.7655625192200634e-31 -78.34164480079832 -18.143809650848166 -107.00707616996046 73.77168329248985 -6.357568837409711e-15 1.2723988372880055e-14 32.06828278066462 -48.89334248728753 25.27108079020516 -120.67933112473497 -65.42945188182938 94.3839622145796 -31.21037885347926 2.207722080115953e-15 3.918905380399924e-15 -43.81997045841212 71.85855022511242 -137.63730915026156 2.0334185842263626 -14.305610123390359 25.023149509709462 2.810678617534765 9.198706661128934 -6.530672692071497 -1.5902773407317584e-15 0.0 0.0 5.97508913349614 -36.800394774568105 4.862222506502742 -1.4520380481896489 16.00461447953088 5.940995767757339 3.1805546814635176e-15 -8.827812596100317e-32 -3.1805546814635176e-15
5.51974605816601 43.01484774459992 -40.7794680427462 58.32909769413498 -43.60274409909547 59.74840684485622 1.5022083069808625 -10.758682372630263 3.310150745907568 9.661171727470972 6.338515007955945e-15 -5.356676404592846e-16 0.0 0.0 0.0 -67.96666141966861 -20.909059768208014 -106.70886357709057 67.98425959566838 1.717724426169042e-15 -8.830450014012771e-15 52.4191664757026 -32.00371548679244 34.55370874490618 -128.69603230954462 -64.86992598680882 86.41827573977994 -32.77413476143782 5.654049476651278e-15 3.3203040317329763e-15 -54.257970413104026 73.88792355907545 -126.83726084524393 1.7607600964058576 -12.555293873950278 25.286216831225854 2.5762072007466665 8.243154981767667 -6.228062944489492 0.0 0.0 0.0 5.559396007815676 -35.075778066212806 5.365818493371515 -1.1084607607760841 14.599082770504298 6.518135174042819 0.0 0.0 0.0
5.814568242870689 43.088808808791065 -40.85189654600785 60.10664297649651 -41.89735882095743 60.150948721975745 1.742078706002611 -10.084303296136476 4.3940314131838285 11.773162790726431 6.001370027701471e-15 -3.8161758606625954e-15 0.0 0.0 0.0 -48.080583315860856 -26.956939333417665 -97.0648021843926 54.96302136753373 -1.1286640931486112e-14 5.870824966916845e-15 65.04898875633967 -27.42531101811916 44.710682866075146 -139.6132652122982 -61.29167795674094 81.99487840916714 -36.78574750319415 3.0180768840406147e-15 1.0035636520914772e-15 -23.424168028625466 55.794033388579564 -160.28746697367325 1.8710567403535356 -10.81364447559964 26.424232059201554 2.3015157219658215 7.697774570025875 -5.616622602196493 -3.1805546814635168e-15 5.565970692561154e-15 1.5448672043175555e-31 6.46212002131596 -33.361127060443536 8.369042954727739 -0.7297074780929453 12.568176280152384 5.331438421893711 0.0 0.0 0.0
6.184037861390905 43.1079594485629 -40.63962779697658 64.30315684441186 -37.25879472347252 62.41096324180863 1.8115426277913322 -10.078075122596553 5.556916316716247 17.911580980798888 5.80641243137324e-16 -6.531121656678186e-15 6.361109362927035e-15 0.0 0.0 -20.678181723799362 -24.626335028329443 -79.83576723965058 55.30698121869372 3.0874345924315846e-15 1.2745137309095897e-14 84.865026704568 -3.992480223665786 37.76842876838388 -156.8806164731139 -55.803456930071704 73.51571562213717 -43.47138436412461 -5.88920227491846e-16 1.4772118961394219e-15 -16.786119151407014 20.795736480712133 -173.8870224951647 1.114821677574964 -6.242630638576138 27.12910792920038 2.0852459041877682 6.794264888265564 -5.15256322029879 -3.1805546814635168e-15 0.0 0.0 6.625825203019072 -32.97255641143381 9.956710229870778 -0.6028796226130819 16.072083967166108 7.57763870491203 3.1805546814635168e-15 0.0 0.0
6.241420671753955 43.22782935254212 -40.814181728528574 63.99944009015968 -37.77183549741102 62.62103661219577 1.7031276352225546 -10.292864552221866 4.430533248425786 18.943154027250834 2.6138085954017842e-15 -3.660582028880481e-15 6.361109362927033e-15 -6.361109362927033e-15 3.531125038440127e-31 -3.4906453819708347 -28.817820314075902 -80.36330819406145 56.061627842275776 3.938308794378461e-15 -1.2906449136464768e-14 63.89716558466238 -2.4355248139077745 4.957000484800809 -148.99410806535502 -55.55859703531464 81.91172426052522 -46.85247935043878 0.0 0.0 -20.52879200178823 10.307620897505513 -176.166749366131 1.2891181851178852 -7.827138819199328 26.78580228980939 2.779233452233722 8.793713044381109 -5.094880867949586 3.1805546814635176e-15 0.0 0.0 6.061969075550861 -32.83290663381152 9.426295164975265 -0.45826941274656857 15.465853345917502 7.806344831569725 -3.1805546814635176e-15 0.0 0.0
6.371634104061114 43.53909969857781 -40.787618082012614 64.15625575592502 -38.24383516787375 62.26365552071191 1.948472652915966 -10.511669928284316 4.267668516722626 16.73956033403995 1.7491179869334763e-14 -1.2217830840974006e-14 6.361109362927035e-15 -1.7655625192200634e-31 -3.1805546814635176e-15 39.61193153424075 -24.82849094957821 -59.56101847446449 51.553160592155606 7.062329465006576e-15 3.653498739403336e-15 31.469006963986015 22.87760290771281 -13.38438435282452 -151.75034059015866 -50.322652032522534 75.04748197463587 -53.364015112099715 -2.1277695370002254e-15 -2.8491238828169984e-15 -25.24794809398341 9.012893109669681 -175.77482120099478 1.540175484479845 -8.344577321905025 26.719489648112347 2.9702844504310413 10.097870688411824 -4.150578281827545 3.180554681463516e-15 -4.7708320221952736e-15 1.5902773407317582e-15 6.374792407265451 -31.21274927845779 10.608567889317996 -0.37756558847388816 13.622284192580091 6.701309872192595 -3.1805546814635168e-15 0.0 0.0
6.535678320205183 43.560563537382095 -40.77924366577636 64.96638894327465 -38.16389862991327 62.326032190854505 1.9295537566940069 -10.301690187299297 4.237433226845745 16.145010014853423 1.1278865663357278e-15 -3.3723555559436144e-15 0.0 0.0 0.0 58.849643727892094 -25.295210051474715 -49.56921941070244 46.51064777230914 1.0203179593646618e-15 2.3742460718163094e-15 16.107494833780066 19.161040882551347 -5.414525857557765 -130.29261777729704 -56.32545954475545 88.20618489596475 -57.42865806459608 -5.578858540339132e-15 -3.056149491435765e-15 -42.96804921696628 34.75645876798555 -152.03067442308017 1.473860874517082 -7.904784023004793 27.561308223043184 3.21387836386045 10.413684220860832 -4.442340836403514 0.0 0.0 0.0 6.198115898544323 -30.23474250053876 11.050209444668386 -0.2669458694870539 13.397468644080938 7.32191464034712 -3.1805546814635168e-15 0.0 0.0
6.764449849222674 43.50351621632176 -40.86432002072906 65.90971192495506 -37.93054663543109 62.09726217454482 2.2086528726018506 -10.155374001330388 4.032421365357761 14.134250357884829 -7.095402598137924e-15 -5.530161536933034e-15 0.0 0.0 0.0 63.627975691688086 -25.548549193694033 -47.398445201652095 40.59610005905208 -5.854030580662347e-15 2.50965804308504e-15 27.729302072166828 19.992323634405945 -10.188522213258503 -99.81193619159787 -15.472144430205155 105.74588141426813 -137.76579884624203 0.0 -0.0 -76.73152223501278 6.757659215507747 -153.48053466594402 1.3225971606370934 -6.123344199213728 28.742218105179674 2.652802288013736 8.864293088696344 -4.201613025337747 -3.1805546814635168e-15 0.0 0.0 6.897334712932408 -29.168959707172554 13.50994460357149 -0.1005834790585973 13.200068485634192 6.00087840984632 0.0 0.0 0.0
